<?xml version="1.0" encoding="UTF-8"?>
<svg width="256px" height="256px" viewBox="0 0 256 256" version="1.1" xmlns="http://www.w3.org/2000/svg" xmlns:xlink="http://www.w3.org/1999/xlink">
    <title>Artboard</title>
    <g id="Artboard" stroke="none" stroke-width="1" fill="none" fill-rule="evenodd">
        <g id="Group" transform="translate(-0.000000, 27.000000)" fill="#000000" fill-rule="nonzero">
            <g id="B" transform="translate(112.000000, 0.000000)">
                <path d="M0,201 L78.4129555,201 C112.518219,201 144,180.026087 144,142.73913 C144,122.63913 130.008097,100.791304 111.643725,93.5086957 C123.012146,87.3913043 134.089069,72.826087 134.089069,54.473913 C134.089069,14.273913 100.275304,0 69.6680162,0 L0,0 L0,201 Z M36.145749,80.9826087 L36.145749,32.626087 L70.2510121,32.626087 C87.4493927,32.626087 100.8583,40.7826087 100.8583,56.5130435 C100.8583,76.3217391 87.1578947,80.9826087 73.1659919,80.9826087 L36.145749,80.9826087 Z M36.145749,166.626087 L36.145749,112.152174 L77.5384615,112.152174 C96.48583,112.152174 108.437247,124.386957 108.437247,138.66087 C108.437247,157.595652 97.6518219,166.626087 78.9959514,166.626087 L36.145749,166.626087 Z" id="Shape"></path>
            </g>
            <g id="F">
                <polygon id="Path" points="0 201 36.00818 201 36.00818 117.104348 129.513292 117.104348 129.513292 83.8956522 36.00818 83.8956522 36.00818 33.2086957 142 33.2086957 142 0 0 0"></polygon>
            </g>
        </g>
    </g>
</svg>